<svg width="822" height="1122" viewBox="0 0 822 1122" fill="none" xmlns="http://www.w3.org/2000/svg">
<rect width="822" height="1122" rx="20" fill="white"/>
<g clip-path="url(#clip0_233_558)">
<path d="M83.7695 159C83.0868 159 82.5748 158.787 82.2335 158.36C81.9775 157.848 81.9775 157.293 82.2335 156.696L117.306 74.136C117.647 73.2827 117.946 72.728 118.202 72.472C118.543 72.1307 119.098 71.96 119.866 71.96H122.17C122.938 71.96 123.45 72.1307 123.706 72.472C124.047 72.728 124.388 73.2827 124.73 74.136L159.802 156.696C159.887 156.867 159.93 157.123 159.93 157.464C159.93 157.891 159.759 158.275 159.418 158.616C159.162 158.872 158.778 159 158.266 159H155.834C154.895 159 154.212 158.829 153.786 158.488C153.359 158.147 152.975 157.592 152.634 156.824L142.906 133.784H99.1295L89.4015 156.824C89.0602 157.592 88.6762 158.147 88.2495 158.488C87.8228 158.829 87.1402 159 86.2015 159H83.7695ZM140.218 127.512L121.018 82.072L101.69 127.512H140.218Z" fill="black"/>
<path d="M121.202 281.503C131.382 291.683 147.887 291.683 158.067 281.503C168.247 271.323 168.247 254.818 158.067 244.638L124.888 211.459C122.852 209.423 119.551 209.423 117.515 211.459L84.3364 244.638L84.34 244.641C74.5265 254.848 74.6481 271.077 84.7051 281.134C94.762 291.191 110.992 291.313 121.198 281.499L121.202 281.503Z" fill="black"/>
<rect x="118.5" y="266" width="5" height="33" rx="2.5" fill="black"/>
<path d="M730.23 959C730.913 959 731.425 959.213 731.766 959.64C732.022 960.152 732.022 960.707 731.766 961.304L696.694 1043.86C696.353 1044.72 696.054 1045.27 695.798 1045.53C695.457 1045.87 694.902 1046.04 694.134 1046.04H691.83C691.062 1046.04 690.55 1045.87 690.294 1045.53C689.953 1045.27 689.612 1044.72 689.27 1043.86L654.198 961.304C654.113 961.133 654.07 960.877 654.07 960.536C654.07 960.109 654.241 959.725 654.582 959.384C654.838 959.128 655.222 959 655.734 959H658.166C659.105 959 659.788 959.171 660.214 959.512C660.641 959.853 661.025 960.408 661.366 961.176L671.094 984.216H714.87L724.598 961.176C724.94 960.408 725.324 959.853 725.75 959.512C726.177 959.171 726.86 959 727.798 959H730.23ZM673.782 990.488L692.982 1035.93L712.31 990.488H673.782Z" fill="black"/>
<path d="M692.798 836.497C682.618 826.317 666.113 826.317 655.933 836.497C645.753 846.677 645.753 863.182 655.933 873.362L689.112 906.541C691.148 908.577 694.449 908.577 696.485 906.541L729.664 873.362L729.66 873.359C739.474 863.152 739.352 846.923 729.295 836.866C719.238 826.809 703.008 826.687 692.802 836.501L692.798 836.497Z" fill="black"/>
<rect x="695.5" y="852" width="5" height="33" rx="2.5" transform="rotate(-180 695.5 852)" fill="black"/>
</g>
<mask id="mask0_233_558" style="mask-type:alpha" maskUnits="userSpaceOnUse" x="253" y="370" width="323" height="323">
<mask id="path-8-inside-1_233_558" fill="white">
<path fill-rule="evenodd" clip-rule="evenodd" d="M404 638.057C366.97 665.152 314.678 661.99 281.211 628.569C244.693 592.103 244.251 533.253 279.885 496.244L279.872 496.231L400.347 375.924C407.74 368.542 419.726 368.542 427.119 375.924L547.594 496.231C584.559 533.145 584.559 592.993 547.594 629.906C513.273 664.179 459.153 666.63 422 637.26V684C422 688.971 417.971 693 413 693C408.029 693 404 688.971 404 684V638.057Z"/>
</mask>
<path fill-rule="evenodd" clip-rule="evenodd" d="M404 638.057C366.97 665.152 314.678 661.99 281.211 628.569C244.693 592.103 244.251 533.253 279.885 496.244L279.872 496.231L400.347 375.924C407.74 368.542 419.726 368.542 427.119 375.924L547.594 496.231C584.559 533.145 584.559 592.993 547.594 629.906C513.273 664.179 459.153 666.63 422 637.26V684C422 688.971 417.971 693 413 693C408.029 693 404 688.971 404 684V638.057Z" fill="#FFF066"/>
<path d="M281.211 628.569L281.917 627.862L281.211 628.569ZM404 638.057H405V636.086L403.41 637.25L404 638.057ZM279.885 496.244L280.606 496.938L281.287 496.231L280.592 495.537L279.885 496.244ZM279.872 496.231L279.166 495.524L278.457 496.231L279.165 496.939L279.872 496.231ZM400.347 375.924L401.054 376.632L400.347 375.924ZM427.119 375.924L426.412 376.632L427.119 375.924ZM547.594 496.231L546.887 496.939L547.594 496.231ZM547.594 629.906L548.3 630.614L547.594 629.906ZM422 637.26L422.62 636.475L421 635.195V637.26H422ZM280.504 629.277C314.325 663.051 367.169 666.246 404.591 638.864L403.41 637.25C366.771 664.058 315.03 660.928 281.917 627.862L280.504 629.277ZM279.165 495.551C243.154 532.951 243.6 592.424 280.504 629.277L281.917 627.862C245.786 591.781 245.349 533.554 280.606 496.938L279.165 495.551ZM279.165 496.939L279.179 496.952L280.592 495.537L280.579 495.524L279.165 496.939ZM399.64 375.217L279.166 495.524L280.579 496.939L401.054 376.632L399.64 375.217ZM427.826 375.217C420.042 367.444 407.424 367.444 399.64 375.217L401.054 376.632C408.056 369.639 419.41 369.639 426.412 376.632L427.826 375.217ZM548.3 495.524L427.826 375.217L426.412 376.632L546.887 496.939L548.3 495.524ZM548.3 630.614C585.656 593.31 585.656 532.828 548.3 495.524L546.887 496.939C583.461 533.462 583.461 592.676 546.887 629.198L548.3 630.614ZM421.38 638.044C458.926 667.726 513.617 665.249 548.3 630.614L546.887 629.198C512.929 663.109 459.38 665.535 422.62 636.475L421.38 638.044ZM421 637.26V684H423V637.26H421ZM421 684C421 688.418 417.418 692 413 692V694C418.523 694 423 689.523 423 684H421ZM413 692C408.582 692 405 688.418 405 684H403C403 689.523 407.477 694 413 694V692ZM405 684V638.057H403V684H405Z" fill="black" mask="url(#path-8-inside-1_233_558)"/>
</mask>
<g mask="url(#mask0_233_558)">
<path fill-rule="evenodd" clip-rule="evenodd" d="M216 337.607L229.04 323.78C243.084 309.953 270.168 282.299 297.252 301.657C323.332 318.249 350.416 381.853 377.5 381.853C404.584 381.853 431.668 318.249 458.752 315.484C484.832 309.953 511.916 362.496 525.96 390.15L539 417.804V498H525.96C511.916 498 484.832 498 458.752 498C431.668 498 404.584 498 377.5 498C350.416 498 323.332 498 297.252 498C270.168 498 243.084 498 229.04 498H216V337.607Z" fill="black"/>
<path fill-rule="evenodd" clip-rule="evenodd" d="M232 556.6L248.714 531.04C266.714 502.639 301.429 448.679 336.143 428.799C369.571 411.759 404.286 428.799 439 457.199C473.714 482.759 508.429 519.679 543.143 533.88C576.571 548.08 611.286 539.56 629.286 533.88L646 531.04V585H629.286C611.286 585 576.571 585 543.143 585C508.429 585 473.714 585 439 585C404.286 585 369.571 585 336.143 585C301.429 585 266.714 585 248.714 585H232V556.6Z" fill="#333333"/>
<path fill-rule="evenodd" clip-rule="evenodd" d="M140 587.26L158.571 590.808C178.571 594.356 217.143 599.678 255.714 587.26C292.857 576.616 331.429 548.232 370 521.622C408.571 496.786 447.143 473.724 485.714 464.854C522.857 455.984 561.429 461.306 581.429 464.854L600 466.628V605H581.429C561.429 605 522.857 605 485.714 605C447.143 605 408.571 605 370 605C331.429 605 292.857 605 255.714 605C217.143 605 178.571 605 158.571 605H140V587.26Z" fill="#575757"/>
<path fill-rule="evenodd" clip-rule="evenodd" d="M209 639L225.553 630.585C243.379 622.17 277.758 607.023 312.137 586.826C345.242 568.313 379.621 546.434 414 532.97C448.379 519.506 482.758 514.457 517.137 527.921C550.242 541.385 584.621 573.362 602.447 590.192L619 607.023V639H602.447C584.621 639 550.242 639 517.137 639C482.758 639 448.379 639 414 639C379.621 639 345.242 639 312.137 639C277.758 639 243.379 639 225.553 639H209Z" fill="#808080"/>
<path fill-rule="evenodd" clip-rule="evenodd" d="M253 562.5L266.363 580.5C280.755 598.5 308.509 634.5 335.236 639C362.991 641.25 390.745 612 418.5 587.25C446.255 562.5 474.009 540 500.736 540C528.491 540 556.245 562.5 569.609 573.75L584 585V693H569.609C556.245 693 528.491 693 500.736 693C474.009 693 446.255 693 418.5 693C390.745 693 362.991 693 335.236 693C308.509 693 280.755 693 266.363 693H253V562.5Z" fill="#A8A8A8"/>
</g>
<defs>
<clipPath id="clip0_233_558">
<rect width="722" height="1022" fill="white" transform="translate(46 48)"/>
</clipPath>
</defs>
</svg>
