<svg width="822" height="1122" viewBox="0 0 822 1122" fill="none" xmlns="http://www.w3.org/2000/svg">
<rect width="822" height="1122" rx="20" fill="white"/>
<g clip-path="url(#clip0_233_473)">
<path d="M137.898 159C135.935 159 134.954 158.019 134.954 156.056V138.52H87.9775C86.2708 138.52 85.4175 137.752 85.4175 136.216V135.32C85.4175 134.125 85.8015 133.101 86.5695 132.248L135.21 73.24C135.892 72.3867 136.746 71.96 137.77 71.96H138.922C140.884 71.96 141.866 72.9413 141.866 74.904V132.248H153.642C155.604 132.248 156.586 133.187 156.586 135.064V135.96C156.586 136.899 156.33 137.581 155.818 138.008C155.391 138.349 154.666 138.52 153.642 138.52H141.866V156.056C141.866 158.019 140.884 159 138.922 159H137.898ZM134.954 132.248V82.84L94.1215 132.248H134.954Z" fill="black"/>
<path d="M141.309 231.337C141.309 231.336 141.309 231.335 141.309 231.333C141.309 219.551 132.085 210 120.706 210C109.327 210 100.103 219.551 100.103 231.333C88.7243 231.333 79.5 240.885 79.5 252.667C79.5 264.449 88.7243 274 100.103 274C110.489 274 119.08 266.043 120.5 255.695C121.92 266.043 130.511 274 140.897 274C152.276 274 161.5 264.449 161.5 252.667C161.5 241.027 152.498 231.565 141.309 231.337Z" fill="black"/>
<rect x="118.5" y="251" width="5" height="33" rx="2.5" fill="black"/>
<path d="M676.102 959C678.065 959 679.046 959.981 679.046 961.944V979.48H726.022C727.729 979.48 728.582 980.248 728.582 981.784V982.68C728.582 983.875 728.198 984.899 727.43 985.752L678.79 1044.76C678.108 1045.61 677.254 1046.04 676.23 1046.04H675.078C673.116 1046.04 672.134 1045.06 672.134 1043.1V985.752H660.358C658.396 985.752 657.414 984.813 657.414 982.936V982.04C657.414 981.101 657.67 980.419 658.182 979.992C658.609 979.651 659.334 979.48 660.358 979.48H672.134V961.944C672.134 959.981 673.116 959 675.078 959H676.102ZM679.046 985.752V1035.16L719.878 985.752H679.046Z" fill="black"/>
<path d="M672.691 886.663C672.691 886.664 672.691 886.665 672.691 886.667C672.691 898.449 681.915 908 693.294 908C704.673 908 713.897 898.449 713.897 886.667C725.276 886.667 734.5 877.115 734.5 865.333C734.5 853.551 725.276 844 713.897 844C703.511 844 694.92 851.957 693.5 862.305C692.08 851.957 683.489 844 673.103 844C661.724 844 652.5 853.551 652.5 865.333C652.5 876.973 661.502 886.435 672.691 886.663Z" fill="black"/>
<rect x="695.5" y="867" width="5" height="33" rx="2.5" transform="rotate(-180 695.5 867)" fill="black"/>
</g>
<path d="M435.668 627.317V631.235L439.586 631.316C452.372 631.581 463 642.649 463 656.689C463 670.902 452.111 682.066 439.111 682.066C427.238 682.066 417.144 672.776 415.464 660.324H407.536C405.856 672.776 395.762 682.066 383.889 682.066C370.889 682.066 360 670.902 360 656.689C360 642.475 370.889 631.311 383.889 631.311H387.889V627.311C387.889 613.098 398.778 601.934 411.779 601.934C424.779 601.934 435.668 613.098 435.668 627.311V627.312V627.312V627.312V627.312V627.312V627.312V627.312V627.312V627.312V627.312V627.312V627.312V627.312V627.312V627.313V627.313V627.313V627.313V627.313V627.313V627.313V627.313V627.313V627.313V627.313V627.313V627.313V627.313V627.313V627.314V627.314V627.314V627.314V627.314V627.314V627.314V627.314V627.314V627.314V627.314V627.314V627.314V627.314V627.314V627.315V627.315V627.315V627.315V627.315V627.315V627.315V627.315V627.315V627.315V627.315V627.315V627.315V627.315V627.315V627.316V627.316V627.316V627.316V627.316V627.316V627.316V627.316V627.316V627.316V627.316V627.316V627.316V627.316V627.316V627.317V627.317V627.317V627.317V627.317V627.317V627.317V627.317V627.317V627.317V627.317Z" stroke="black" stroke-width="8"/>
<path d="M408.307 664.027C408.307 662.347 409.668 660.986 411.348 660.986C413.027 660.986 414.389 662.347 414.389 664.027V694.959C414.389 696.638 413.027 698 411.348 698C409.668 698 408.307 696.638 408.307 694.959V664.027Z" fill="black"/>
<path d="M603.668 465.317V469.235L607.586 469.316C620.372 469.581 631 480.649 631 494.689C631 508.902 620.111 520.066 607.111 520.066C595.238 520.066 585.144 510.776 583.464 498.324H575.536C573.856 510.776 563.762 520.066 551.889 520.066C538.889 520.066 528 508.902 528 494.689C528 480.475 538.889 469.311 551.889 469.311H555.889V465.311C555.889 451.098 566.778 439.934 579.779 439.934C592.779 439.934 603.668 451.098 603.668 465.311V465.312V465.312V465.312V465.312V465.312V465.312V465.312V465.312V465.312V465.312V465.312V465.312V465.312V465.312V465.313V465.313V465.313V465.313V465.313V465.313V465.313V465.313V465.313V465.313V465.313V465.313V465.313V465.313V465.313V465.314V465.314V465.314V465.314V465.314V465.314V465.314V465.314V465.314V465.314V465.314V465.314V465.314V465.314V465.314V465.315V465.315V465.315V465.315V465.315V465.315V465.315V465.315V465.315V465.315V465.315V465.315V465.315V465.315V465.315V465.316V465.316V465.316V465.316V465.316V465.316V465.316V465.316V465.316V465.316V465.316V465.316V465.316V465.316V465.316V465.317V465.317V465.317V465.317V465.317V465.317V465.317V465.317V465.317V465.317V465.317Z" stroke="black" stroke-width="8"/>
<path d="M576.307 502.027C576.307 500.347 577.668 498.986 579.348 498.986C581.027 498.986 582.389 500.347 582.389 502.027V532.959C582.389 534.638 581.027 536 579.348 536C577.668 536 576.307 534.638 576.307 532.959V502.027Z" fill="black"/>
<path d="M267.668 465.317V469.235L271.586 469.316C284.372 469.581 295 480.649 295 494.689C295 508.902 284.111 520.066 271.111 520.066C259.238 520.066 249.144 510.776 247.464 498.324H239.536C237.856 510.776 227.762 520.066 215.889 520.066C202.889 520.066 192 508.902 192 494.689C192 480.475 202.889 469.311 215.889 469.311H219.889V465.311C219.889 451.098 230.778 439.934 243.779 439.934C256.779 439.934 267.668 451.098 267.668 465.311V465.312V465.312V465.312V465.312V465.312V465.312V465.312V465.312V465.312V465.312V465.312V465.312V465.312V465.312V465.313V465.313V465.313V465.313V465.313V465.313V465.313V465.313V465.313V465.313V465.313V465.313V465.313V465.313V465.313V465.314V465.314V465.314V465.314V465.314V465.314V465.314V465.314V465.314V465.314V465.314V465.314V465.314V465.314V465.314V465.315V465.315V465.315V465.315V465.315V465.315V465.315V465.315V465.315V465.315V465.315V465.315V465.315V465.315V465.315V465.316V465.316V465.316V465.316V465.316V465.316V465.316V465.316V465.316V465.316V465.316V465.316V465.316V465.316V465.316V465.317V465.317V465.317V465.317V465.317V465.317V465.317V465.317V465.317V465.317V465.317Z" stroke="black" stroke-width="8"/>
<path d="M240.307 502.027C240.307 500.347 241.668 498.986 243.348 498.986C245.027 498.986 246.389 500.347 246.389 502.027V532.959C246.389 534.638 245.027 536 243.348 536C241.668 536 240.307 534.638 240.307 532.959V502.027Z" fill="black"/>
<path d="M435.668 465.317V469.235L439.586 469.316C452.372 469.581 463 480.649 463 494.689C463 508.902 452.111 520.066 439.111 520.066C427.238 520.066 417.144 510.776 415.464 498.324H407.536C405.856 510.776 395.762 520.066 383.889 520.066C370.889 520.066 360 508.902 360 494.689C360 480.475 370.889 469.311 383.889 469.311H387.889V465.311C387.889 451.098 398.778 439.934 411.779 439.934C424.779 439.934 435.668 451.098 435.668 465.311V465.312V465.312V465.312V465.312V465.312V465.312V465.312V465.312V465.312V465.312V465.312V465.312V465.312V465.312V465.313V465.313V465.313V465.313V465.313V465.313V465.313V465.313V465.313V465.313V465.313V465.313V465.313V465.313V465.313V465.314V465.314V465.314V465.314V465.314V465.314V465.314V465.314V465.314V465.314V465.314V465.314V465.314V465.314V465.314V465.315V465.315V465.315V465.315V465.315V465.315V465.315V465.315V465.315V465.315V465.315V465.315V465.315V465.315V465.315V465.316V465.316V465.316V465.316V465.316V465.316V465.316V465.316V465.316V465.316V465.316V465.316V465.316V465.316V465.316V465.317V465.317V465.317V465.317V465.317V465.317V465.317V465.317V465.317V465.317V465.317Z" stroke="black" stroke-width="8"/>
<path d="M408.307 502.027C408.307 500.347 409.668 498.986 411.348 498.986C413.027 498.986 414.389 500.347 414.389 502.027V532.959C414.389 534.638 413.027 536 411.348 536C409.668 536 408.307 534.638 408.307 532.959V502.027Z" fill="black"/>
<defs>
<clipPath id="clip0_233_473">
<rect width="722" height="1022" fill="white" transform="translate(46 48)"/>
</clipPath>
</defs>
</svg>
