<svg width="822" height="1122" viewBox="0 0 822 1122" fill="none" xmlns="http://www.w3.org/2000/svg">
<rect width="822" height="1122" rx="20" fill="white"/>
<g clip-path="url(#clip0_233_492)">
<path d="M120.57 160.92C110.586 160.92 102.522 157.848 96.378 151.704C90.3193 145.56 87.29 135.619 87.29 121.88C87.29 108.909 89.0393 98.584 92.538 90.904C96.0367 83.1387 100.474 77.72 105.85 74.648C111.226 71.576 117.029 70.04 123.258 70.04C128.037 70.04 132.346 70.552 136.186 71.576C140.111 72.6 143.397 74.008 146.042 75.8C146.554 76.1413 146.853 76.44 146.938 76.696C147.023 76.952 146.938 77.336 146.682 77.848L145.018 80.664C144.762 81.176 144.463 81.432 144.122 81.432C143.951 81.432 143.653 81.304 143.226 81.048C137.85 77.6347 131.151 75.928 123.13 75.928C115.109 75.928 108.623 78.9147 103.674 84.888C98.81 90.776 95.7807 99.224 94.586 110.232C97.4873 106.136 101.242 103.107 105.85 101.144C110.458 99.1813 116.005 98.2 122.49 98.2C128.719 98.2 134.266 99.352 139.13 101.656C143.994 103.96 147.791 107.373 150.522 111.896C153.338 116.333 154.746 121.667 154.746 127.896C154.746 138.733 151.717 146.968 145.658 152.6C139.685 158.147 131.322 160.92 120.57 160.92ZM120.57 155.032C138.917 155.032 148.09 145.987 148.09 127.896C148.09 119.96 145.743 114.029 141.05 110.104C136.442 106.179 129.871 104.216 121.338 104.216C117.327 104.216 113.189 105.112 108.922 106.904C104.741 108.611 101.242 111.171 98.426 114.584C95.61 117.997 94.202 122.051 94.202 126.744C94.202 136.216 96.6767 143.299 101.626 147.992C106.575 152.685 112.89 155.032 120.57 155.032Z" fill="black"/>
<path d="M141.309 231.337C141.309 231.336 141.309 231.335 141.309 231.333C141.309 219.551 132.085 210 120.706 210C109.327 210 100.103 219.551 100.103 231.333C88.7243 231.333 79.5 240.885 79.5 252.667C79.5 264.449 88.7243 274 100.103 274C110.489 274 119.08 266.043 120.5 255.695C121.92 266.043 130.511 274 140.897 274C152.276 274 161.5 264.449 161.5 252.667C161.5 241.027 152.498 231.565 141.309 231.337Z" fill="black"/>
<rect x="118.5" y="251" width="5" height="33" rx="2.5" fill="black"/>
<path d="M693.43 957.08C703.414 957.08 711.478 960.152 717.622 966.296C723.681 972.44 726.71 982.381 726.71 996.12C726.71 1009.09 724.961 1019.42 721.462 1027.1C717.963 1034.86 713.526 1040.28 708.15 1043.35C702.774 1046.42 696.971 1047.96 690.742 1047.96C685.963 1047.96 681.654 1047.45 677.814 1046.42C673.889 1045.4 670.603 1043.99 667.958 1042.2C667.446 1041.86 667.147 1041.56 667.062 1041.3C666.977 1041.05 667.062 1040.66 667.318 1040.15L668.982 1037.34C669.238 1036.82 669.537 1036.57 669.878 1036.57C670.049 1036.57 670.347 1036.7 670.774 1036.95C676.15 1040.37 682.849 1042.07 690.87 1042.07C698.891 1042.07 705.377 1039.09 710.326 1033.11C715.19 1027.22 718.219 1018.78 719.414 1007.77C716.513 1011.86 712.758 1014.89 708.15 1016.86C703.542 1018.82 697.995 1019.8 691.51 1019.8C685.281 1019.8 679.734 1018.65 674.87 1016.34C670.006 1014.04 666.209 1010.63 663.478 1006.1C660.662 1001.67 659.254 996.333 659.254 990.104C659.254 979.267 662.283 971.032 668.342 965.4C674.315 959.853 682.678 957.08 693.43 957.08ZM693.43 962.968C675.083 962.968 665.91 972.013 665.91 990.104C665.91 998.04 668.257 1003.97 672.95 1007.9C677.558 1011.82 684.129 1013.78 692.662 1013.78C696.673 1013.78 700.811 1012.89 705.078 1011.1C709.259 1009.39 712.758 1006.83 715.574 1003.42C718.39 1000 719.798 995.949 719.798 991.256C719.798 981.784 717.323 974.701 712.374 970.008C707.425 965.315 701.11 962.968 693.43 962.968Z" fill="black"/>
<path d="M672.691 886.663C672.691 886.664 672.691 886.665 672.691 886.667C672.691 898.449 681.915 908 693.294 908C704.673 908 713.897 898.449 713.897 886.667C725.276 886.667 734.5 877.115 734.5 865.333C734.5 853.551 725.276 844 713.897 844C703.511 844 694.92 851.957 693.5 862.305C692.08 851.957 683.489 844 673.103 844C661.724 844 652.5 853.551 652.5 865.333C652.5 876.973 661.502 886.435 672.691 886.663Z" fill="black"/>
<rect x="695.5" y="867" width="5" height="33" rx="2.5" transform="rotate(-180 695.5 867)" fill="black"/>
</g>
<path d="M435.668 627.317V631.235L439.586 631.316C452.372 631.58 463 642.649 463 656.688C463 670.902 452.111 682.065 439.111 682.065C427.238 682.065 417.144 672.776 415.464 660.324H407.536C405.856 672.776 395.762 682.065 383.889 682.065C370.889 682.065 360 670.902 360 656.688C360 642.475 370.889 631.311 383.889 631.311H387.889V627.311C387.889 613.098 398.778 601.934 411.779 601.934C424.779 601.934 435.668 613.098 435.668 627.311V627.311V627.312V627.312V627.312V627.312V627.312V627.312V627.312V627.312V627.312V627.312V627.312V627.312V627.312V627.312V627.312V627.313V627.313V627.313V627.313V627.313V627.313V627.313V627.313V627.313V627.313V627.313V627.313V627.313V627.313V627.313V627.314V627.314V627.314V627.314V627.314V627.314V627.314V627.314V627.314V627.314V627.314V627.314V627.314V627.314V627.314V627.315V627.315V627.315V627.315V627.315V627.315V627.315V627.315V627.315V627.315V627.315V627.315V627.315V627.315V627.315V627.316V627.316V627.316V627.316V627.316V627.316V627.316V627.316V627.316V627.316V627.316V627.316V627.316V627.316V627.316V627.317V627.317V627.317V627.317V627.317V627.317V627.317V627.317V627.317Z" stroke="black" stroke-width="8"/>
<path d="M408.307 664.027C408.307 662.347 409.668 660.986 411.348 660.986C413.027 660.986 414.389 662.347 414.389 664.027V694.959C414.389 696.639 413.027 698 411.348 698C409.668 698 408.307 696.639 408.307 694.959V664.027Z" fill="black"/>
<path d="M603.668 627.317V631.235L607.586 631.316C620.372 631.58 631 642.649 631 656.688C631 670.902 620.111 682.065 607.111 682.065C595.238 682.065 585.144 672.776 583.464 660.324H575.536C573.856 672.776 563.762 682.065 551.889 682.065C538.889 682.065 528 670.902 528 656.688C528 642.475 538.889 631.311 551.889 631.311H555.889V627.311C555.889 613.098 566.778 601.934 579.779 601.934C592.779 601.934 603.668 613.098 603.668 627.311V627.311V627.312V627.312V627.312V627.312V627.312V627.312V627.312V627.312V627.312V627.312V627.312V627.312V627.312V627.312V627.312V627.313V627.313V627.313V627.313V627.313V627.313V627.313V627.313V627.313V627.313V627.313V627.313V627.313V627.313V627.313V627.314V627.314V627.314V627.314V627.314V627.314V627.314V627.314V627.314V627.314V627.314V627.314V627.314V627.314V627.314V627.315V627.315V627.315V627.315V627.315V627.315V627.315V627.315V627.315V627.315V627.315V627.315V627.315V627.315V627.315V627.316V627.316V627.316V627.316V627.316V627.316V627.316V627.316V627.316V627.316V627.316V627.316V627.316V627.316V627.316V627.317V627.317V627.317V627.317V627.317V627.317V627.317V627.317V627.317Z" stroke="black" stroke-width="8"/>
<path d="M576.307 664.027C576.307 662.347 577.668 660.986 579.348 660.986C581.027 660.986 582.389 662.347 582.389 664.027V694.959C582.389 696.639 581.027 698 579.348 698C577.668 698 576.307 696.639 576.307 694.959V664.027Z" fill="black"/>
<path d="M267.668 627.317V631.235L271.586 631.316C284.372 631.58 295 642.649 295 656.688C295 670.902 284.111 682.065 271.111 682.065C259.238 682.065 249.144 672.776 247.464 660.324H239.536C237.856 672.776 227.762 682.065 215.889 682.065C202.889 682.065 192 670.902 192 656.688C192 642.475 202.889 631.311 215.889 631.311H219.889V627.311C219.889 613.098 230.778 601.934 243.779 601.934C256.779 601.934 267.668 613.098 267.668 627.311V627.311V627.312V627.312V627.312V627.312V627.312V627.312V627.312V627.312V627.312V627.312V627.312V627.312V627.312V627.312V627.312V627.313V627.313V627.313V627.313V627.313V627.313V627.313V627.313V627.313V627.313V627.313V627.313V627.313V627.313V627.313V627.314V627.314V627.314V627.314V627.314V627.314V627.314V627.314V627.314V627.314V627.314V627.314V627.314V627.314V627.314V627.315V627.315V627.315V627.315V627.315V627.315V627.315V627.315V627.315V627.315V627.315V627.315V627.315V627.315V627.315V627.316V627.316V627.316V627.316V627.316V627.316V627.316V627.316V627.316V627.316V627.316V627.316V627.316V627.316V627.316V627.317V627.317V627.317V627.317V627.317V627.317V627.317V627.317V627.317Z" stroke="black" stroke-width="8"/>
<path d="M240.307 664.027C240.307 662.347 241.668 660.986 243.348 660.986C245.027 660.986 246.389 662.347 246.389 664.027V694.959C246.389 696.639 245.027 698 243.348 698C241.668 698 240.307 696.639 240.307 694.959V664.027Z" fill="black"/>
<path d="M603.668 465.317V469.235L607.586 469.316C620.372 469.58 631 480.649 631 494.688C631 508.902 620.111 520.065 607.111 520.065C595.238 520.065 585.144 510.776 583.464 498.324H575.536C573.856 510.776 563.762 520.065 551.889 520.065C538.889 520.065 528 508.902 528 494.688C528 480.475 538.889 469.311 551.889 469.311H555.889V465.311C555.889 451.098 566.778 439.934 579.779 439.934C592.779 439.934 603.668 451.098 603.668 465.311V465.311V465.312V465.312V465.312V465.312V465.312V465.312V465.312V465.312V465.312V465.312V465.312V465.312V465.312V465.312V465.312V465.313V465.313V465.313V465.313V465.313V465.313V465.313V465.313V465.313V465.313V465.313V465.313V465.313V465.313V465.313V465.314V465.314V465.314V465.314V465.314V465.314V465.314V465.314V465.314V465.314V465.314V465.314V465.314V465.314V465.314V465.315V465.315V465.315V465.315V465.315V465.315V465.315V465.315V465.315V465.315V465.315V465.315V465.315V465.315V465.315V465.316V465.316V465.316V465.316V465.316V465.316V465.316V465.316V465.316V465.316V465.316V465.316V465.316V465.316V465.316V465.317V465.317V465.317V465.317V465.317V465.317V465.317V465.317V465.317Z" stroke="black" stroke-width="8"/>
<path d="M576.307 502.027C576.307 500.347 577.668 498.986 579.348 498.986C581.027 498.986 582.389 500.347 582.389 502.027V532.959C582.389 534.639 581.027 536 579.348 536C577.668 536 576.307 534.639 576.307 532.959V502.027Z" fill="black"/>
<path d="M267.668 465.317V469.235L271.586 469.316C284.372 469.58 295 480.649 295 494.688C295 508.902 284.111 520.065 271.111 520.065C259.238 520.065 249.144 510.776 247.464 498.324H239.536C237.856 510.776 227.762 520.065 215.889 520.065C202.889 520.065 192 508.902 192 494.688C192 480.475 202.889 469.311 215.889 469.311H219.889V465.311C219.889 451.098 230.778 439.934 243.779 439.934C256.779 439.934 267.668 451.098 267.668 465.311V465.311V465.312V465.312V465.312V465.312V465.312V465.312V465.312V465.312V465.312V465.312V465.312V465.312V465.312V465.312V465.312V465.313V465.313V465.313V465.313V465.313V465.313V465.313V465.313V465.313V465.313V465.313V465.313V465.313V465.313V465.313V465.314V465.314V465.314V465.314V465.314V465.314V465.314V465.314V465.314V465.314V465.314V465.314V465.314V465.314V465.314V465.315V465.315V465.315V465.315V465.315V465.315V465.315V465.315V465.315V465.315V465.315V465.315V465.315V465.315V465.315V465.316V465.316V465.316V465.316V465.316V465.316V465.316V465.316V465.316V465.316V465.316V465.316V465.316V465.316V465.316V465.317V465.317V465.317V465.317V465.317V465.317V465.317V465.317V465.317Z" stroke="black" stroke-width="8"/>
<path d="M240.307 502.027C240.307 500.347 241.668 498.986 243.348 498.986C245.027 498.986 246.389 500.347 246.389 502.027V532.959C246.389 534.639 245.027 536 243.348 536C241.668 536 240.307 534.639 240.307 532.959V502.027Z" fill="black"/>
<path d="M435.668 465.317V469.235L439.586 469.316C452.372 469.58 463 480.649 463 494.688C463 508.902 452.111 520.065 439.111 520.065C427.238 520.065 417.144 510.776 415.464 498.324H407.536C405.856 510.776 395.762 520.065 383.889 520.065C370.889 520.065 360 508.902 360 494.688C360 480.475 370.889 469.311 383.889 469.311H387.889V465.311C387.889 451.098 398.778 439.934 411.779 439.934C424.779 439.934 435.668 451.098 435.668 465.311V465.311V465.312V465.312V465.312V465.312V465.312V465.312V465.312V465.312V465.312V465.312V465.312V465.312V465.312V465.312V465.312V465.313V465.313V465.313V465.313V465.313V465.313V465.313V465.313V465.313V465.313V465.313V465.313V465.313V465.313V465.313V465.314V465.314V465.314V465.314V465.314V465.314V465.314V465.314V465.314V465.314V465.314V465.314V465.314V465.314V465.314V465.315V465.315V465.315V465.315V465.315V465.315V465.315V465.315V465.315V465.315V465.315V465.315V465.315V465.315V465.315V465.316V465.316V465.316V465.316V465.316V465.316V465.316V465.316V465.316V465.316V465.316V465.316V465.316V465.316V465.316V465.317V465.317V465.317V465.317V465.317V465.317V465.317V465.317V465.317Z" stroke="black" stroke-width="8"/>
<path d="M408.307 502.027C408.307 500.347 409.668 498.986 411.348 498.986C413.027 498.986 414.389 500.347 414.389 502.027V532.959C414.389 534.639 413.027 536 411.348 536C409.668 536 408.307 534.639 408.307 532.959V502.027Z" fill="black"/>
<defs>
<clipPath id="clip0_233_492">
<rect width="722" height="1022" fill="white" transform="translate(46 48)"/>
</clipPath>
</defs>
</svg>
